<svg width="500" height="500" viewBox="0 0 500 500" fill="none" xmlns="http://www.w3.org/2000/svg">
<rect width="500" height="500" fill="#354658"/>
<path d="M216.446 94.702C212.179 104.414 199.05 134.766 187.233 163.094L165.898 213.68L173.448 225.821C177.715 232.7 190.187 269.931 201.019 308.781C211.851 347.631 222.682 383.648 224.652 388.505C229.575 400.241 246.643 411.167 269.291 417.237C288.656 422.094 427.498 423.308 427.498 418.451C427.498 416.833 421.589 397.003 414.04 374.745L400.911 333.872L386.797 331.444C350.364 325.374 312.617 296.236 299.816 264.266C296.534 256.172 283.076 214.085 269.947 170.783C256.818 127.482 244.017 88.6317 241.063 84.5848C232.857 73.2536 224.98 76.4911 216.446 94.702Z" fill="#FF6E40"/>
<path d="M316.837 193.857C293.861 229.065 294.846 224.614 304.365 249.3C314.212 275.199 330.295 293.815 353.599 306.36C372.308 316.882 394.628 322.548 394.628 317.287C394.628 311.621 352.286 186.168 348.348 180.098C340.798 169.576 329.967 174.432 316.837 193.857Z" fill="#FF6E40"/>
<path d="M112.716 322.952C90.7244 375.561 73 419.267 73 420.077C73 420.886 111.075 421.695 157.683 421.695C240.725 421.695 242.038 421.695 232.191 414.411C226.94 409.959 220.375 403.889 218.078 400.652C216.108 397.414 205.277 362.206 194.445 322.952C183.613 283.697 172.454 246.061 169.828 239.586C159.324 214.496 155.057 220.971 112.716 322.952Z" fill="#FF6E40"/>
</svg>
